<svg width="512" height="512" xmlns="http://www.w3.org/2000/svg">

 <g>
  <title>background</title>
  <rect fill="none" id="canvas_background" height="402" width="582" y="-1" x="-1"/>
 </g>
 <g>
  <title>Layer 1</title>
  <path fill="#ffffff" id="svg_2" d="m398.6,169.2c-0.9,-2.2 -2,-4.3 -3.5,-6.1l-83.8,-91.7c-1.9,-2.1 -4.2,-3.6 -6.7,-4.9c-2.9,-1.5 -6.1,-2.1 -9.5,-2.1l-159.9,0c-12.4,0 -22.7,10.6 -22.7,23.9l0,335.2c0,13.4 10.3,24.9 22.7,24.9l243.1,0c12.4,0 22.2,-11.5 22.2,-24.9l0,-244.1c0,-3.6 -0.5,-7.1 -1.9,-10.2zm-238.1,9.4c0,-1.5 1.8,-2.1 3.4,-2.1l70.8,0c1.6,0 2.8,0.6 2.8,2.1l0,10.8c0,1.4 -1.1,3.1 -2.8,3.1l-70.8,0c-1.6,0 -3.4,-1.7 -3.4,-3.1l0,-10.8zm0,128c0,-1.5 1.8,-2.1 3.4,-2.1l122.2,0c1.6,0 2.4,0.6 2.4,2.1l0,10.8c0,1.4 -0.7,3.1 -2.4,3.1l-122.2,0c-1.6,0 -3.4,-1.7 -3.4,-3.1l0,-10.8zm160,74.8c0,1.4 -0.7,3.1 -2.4,3.1l-154.2,0c-1.6,0 -3.4,-1.7 -3.4,-3.1l0,-10.8c0,-1.5 1.8,-2.1 3.4,-2.1l154.2,0c1.6,0 2.4,0.6 2.4,2.1l0,10.8zm32,-128c0,1.4 -0.7,3.1 -2.4,3.1l-186.2,0c-1.6,0 -3.4,-1.7 -3.4,-3.1l0,-10.8c0,-1.5 1.8,-2.1 3.4,-2.1l186.2,0c1.6,0 2.4,0.6 2.4,2.1l0,10.8zm-46.9,-75.9c-5.6,0 -11.1,-5.2 -11.1,-11.3l0,-66l71.2,77.3l-60.1,0z"/>
 </g>
</svg>