<svg width="32" height="32" xmlns="http://www.w3.org/2000/svg">

 <g>
  <title>background</title>
  <rect fill="none" id="canvas_background" height="402" width="582" y="-1" x="-1"/>
 </g>
 <g>
  <title>Layer 1</title>
  <path fill="#ffffff" id="XMLID_237_" d="m6,12l0,15c0,1.654 1.346,3 3,3l14,0c1.654,0 3,-1.346 3,-3l0,-15l-20,0zm6,13c0,0.552 -0.448,1 -1,1s-1,-0.448 -1,-1l0,-9c0,-0.552 0.448,-1 1,-1s1,0.448 1,1l0,9zm5,0c0,0.552 -0.448,1 -1,1s-1,-0.448 -1,-1l0,-9c0,-0.552 0.448,-1 1,-1s1,0.448 1,1l0,9zm5,0c0,0.552 -0.448,1 -1,1s-1,-0.448 -1,-1l0,-9c0,-0.552 0.448,-1 1,-1s1,0.448 1,1l0,9z"/>
  <path fill="#ffffff" id="XMLID_243_" d="m27,6l-6,0l0,-1c0,-1.654 -1.346,-3 -3,-3l-4,0c-1.654,0 -3,1.346 -3,3l0,1l-6,0c-1.103,0 -2,0.897 -2,2l0,1c0,0.552 0.448,1 1,1l24,0c0.552,0 1,-0.448 1,-1l0,-1c0,-1.103 -0.897,-2 -2,-2zm-14,-1c0,-0.551 0.449,-1 1,-1l4,0c0.551,0 1,0.449 1,1l0,1l-6,0l0,-1z"/>
 </g>
</svg>